<?xml version="1.0" encoding="UTF-8"?>
<svg id="Capa_1" data-name="Capa 1" xmlns="http://www.w3.org/2000/svg" viewBox="0 0 250 100">
  <defs>
    <style>
      .cls-1 {
        letter-spacing: -.02em;
      }

      .cls-2 {
        letter-spacing: 0em;
      }

      .cls-3 {
        font-family: Alice-Regular, Alice;
        font-size: 4.39px;
      }

      .cls-3, .cls-4, .cls-5 {
        fill: #d1ae3d;
      }

      .cls-6 {
        letter-spacing: -.04em;
      }

      .cls-4 {
        stroke-width: 0px;
      }

      .cls-7 {
        letter-spacing: 0em;
      }

      .cls-5 {
        font-family: Amsterdam-One, Amsterdam;
        font-size: 23.99px;
      }

      .cls-8 {
        letter-spacing: 0em;
      }

      .cls-9 {
        letter-spacing: -.06em;
      }
    </style>
  </defs>
  <path class="cls-4" d="M116.25,24.16c-.02-1.3-.17-2.57-.45-3.81-.23-1.01-.75-1.68-1.56-2-.81-.32-1.71-.24-2.7.24-.5.27-.97.6-1.4,1-1.47,1.33-2.9,3.16-4.31,5.5-1.4,2.34-2.77,4.97-4.1,7.89-1.33,2.92-2.58,5.89-3.76,8.89-1.18,3.01-2.26,5.85-3.25,8.52-.96,2.62-1.8,4.85-2.53,6.67-.03.07-.08.18-.14.34-.21.54-.54,1.36-1,2.45-.46,1.09-.95,2.24-1.49,3.44-.53,1.2-1.05,2.21-1.53,3.04-.48.83-.87,1.26-1.17,1.29-.3.03-.42-.56-.38-1.77.19-3.88.39-7.77.62-11.65.32-5.77.65-11.55,1-17.32.09-1.24.2-2.47.31-3.69.08-1.15.17-2.29.26-3.42v-.2c.07-.94.12-1.89.16-2.83.03-.94,0-1.88-.08-2.79-.07-.68-.46-1.02-1.17-1.02s-1.1.32-1.17.97c-.02.26-.03.51-.03.76,0,1.99-.09,3.98-.28,5.95-.09.93-.16,1.86-.2,2.81-.16,2.35-.32,4.7-.48,7.06-.21,3.04-.4,6.1-.58,9.16-.23,4.57-.44,9.14-.62,13.7-.02.86-.05,1.71-.09,2.55-.07,1.64-.09,3.29-.05,4.94.03.76.29,1.23.78,1.41.49.18,1.07.18,1.73,0,.46-.14.79-.42,1-.84.11-.17.22-.33.31-.47.46-.75.87-1.52,1.23-2.31,1.26-2.87,2.48-5.76,3.67-8.66,0-.02.04-.11.11-.27.23-.57.67-1.7,1.33-3.39.66-1.69,1.49-3.75,2.49-6.17,1-2.42,2.09-5,3.26-7.73,1.18-2.73,2.38-5.42,3.6-8.08,1.23-2.66,2.41-5.06,3.56-7.21,1.14-2.15,2.18-3.84,3.1-5.08.93-1.24,1.68-1.82,2.25-1.76.57.06.9.98.97,2.77.14,3,.09,5.99-.14,8.98-.44,5.33-.88,10.68-1.34,16.03-.19,2.14-.38,4.29-.58,6.45-.15,1.69-.3,3.39-.45,5.08h2.77c.16-1.67.32-3.34.49-4.99.19-1.89.36-3.77.51-5.64.14-1.65.27-3.3.41-4.94.17-1.99.34-3.99.52-5.98.23-2.31.4-4.62.52-6.93.11-2.31.14-4.62.08-6.93ZM110.47,66.34c-.23,2.78-.38,5.56-.44,8.35-.03,3.13-.02,6.25.03,9.35v3.46c0,.61.03,1.22.09,1.83.11.79.63,1.11,1.54.94.3-.05.49-.19.56-.44.04-.23.06-.47.06-.73-.07-4.07.03-8.14.31-12.21.09-1.66.18-3.31.26-4.95.09-1.44.18-2.9.25-4.37.03-.41.06-.82.09-1.23h-2.77Z"/>
  <text class="cls-5" transform="translate(116.82 59.58) scale(1.16 1)"><tspan x="0" y="0">acre</tspan></text>
  <path class="cls-4" d="M125.67,14.78s-5.76-.25-5.55,6.79c0,0,0-5.47-6.55-5.59,0,0,5.47-.46,5.3-6.3,0,0,.66,5.72,6.79,5.1Z"/>
  <text class="cls-3" transform="translate(100.99 63.98) scale(1.09 1)"><tspan class="cls-9" x="0" y="0">B</tspan><tspan x="2.46" y="0">Y C</tspan><tspan class="cls-6" x="8.98" y="0">A</tspan><tspan x="11.67" y="0">RMEN </tspan><tspan class="cls-7" x="25.34" y="0">V</tspan><tspan x="28.15" y="0">I</tspan><tspan class="cls-1" x="29.75" y="0">R</tspan><tspan class="cls-8" x="32.63" y="0">G</tspan><tspan x="35.64" y="0">INIA </tspan><tspan class="cls-2" x="45.93" y="0">P</tspan><tspan x="48.55" y="0">ÉREZ</tspan></text>
</svg>